<svg xmlns="http://www.w3.org/2000/svg" width="1400" height="560" viewBox="0 0 1400 560"><defs><marker id="arr" markerWidth="10" markerHeight="8" refX="9" refY="4" orient="auto"><path d="M0,0 L10,4 L0,8 Z" fill="#167a73"/></marker><marker id="back" markerWidth="10" markerHeight="8" refX="9" refY="4" orient="auto"><path d="M0,0 L10,4 L0,8 Z" fill="#c8763d"/></marker></defs><rect width="1400" height="560" fill="#ffffff"/><rect x="78" y="75" width="300" height="100" rx="4" fill="#e9f0f8" stroke="#d5e1dd" stroke-width="2"/><text x="228.0" y="113.0" fill="#19383b" text-anchor="middle" font-size="27" font-weight="bold" font-family="Microsoft YaHei,Arial,sans-serif">分立系统</text><line x1="385" y1="125" x2="432" y2="125" stroke="#167a73" stroke-width="4" marker-end="url(#arr)"/><rect x="445" y="75" width="875" height="100" rx="4" fill="#e9f0f8" stroke="#d5e1dd" stroke-width="2"/><text x="882.5" y="113.0" fill="#19383b" text-anchor="middle" font-size="25" font-weight="bold" font-family="Microsoft YaHei,Arial,sans-serif">激光 | 调制 | 光路 | 相干接收 | ADC/DSP</text><rect x="78" y="205" width="300" height="100" rx="4" fill="#d6eee7" stroke="#d5e1dd" stroke-width="2"/><text x="228.0" y="243.0" fill="#19383b" text-anchor="middle" font-size="27" font-weight="bold" font-family="Microsoft YaHei,Arial,sans-serif">SOI 收发 PIC</text><line x1="385" y1="255" x2="432" y2="255" stroke="#167a73" stroke-width="4" marker-end="url(#arr)"/><rect x="445" y="205" width="875" height="100" rx="4" fill="#d6eee7" stroke="#d5e1dd" stroke-width="2"/><text x="882.5" y="243.0" fill="#19383b" text-anchor="middle" font-size="25" font-weight="bold" font-family="Microsoft YaHei,Arial,sans-serif">MZM | 偏振处理 | 90° 混合 | 平衡 PD</text><rect x="78" y="335" width="300" height="100" rx="4" fill="#f8ede3" stroke="#d5e1dd" stroke-width="2"/><text x="228.0" y="373.0" fill="#19383b" text-anchor="middle" font-size="27" font-weight="bold" font-family="Microsoft YaHei,Arial,sans-serif">混合集成模块</text><line x1="385" y1="385" x2="432" y2="385" stroke="#167a73" stroke-width="4" marker-end="url(#arr)"/><rect x="445" y="335" width="875" height="100" rx="4" fill="#f8ede3" stroke="#d5e1dd" stroke-width="2"/><text x="882.5" y="373.0" fill="#19383b" text-anchor="middle" font-size="25" font-weight="bold" font-family="Microsoft YaHei,Arial,sans-serif">InP 激光 + 微光学 + SOI PIC + TEC</text><text x="700" y="503" fill="#167a73" text-anchor="middle" font-size="24" font-weight="bold" font-family="Microsoft YaHei,Arial,sans-serif">集成层级不同；外部放大、环行、采集和处理需分别核算</text></svg>