<svg xmlns="http://www.w3.org/2000/svg" width="1200" height="520" viewBox="0 0 1200 520">
<rect width="1200" height="520" fill="#FFFFFF"/>
<rect x="40" y="22" width="132" height="42" rx="21" fill="#EAF3F8" stroke="#155C83" stroke-width="1.3"/>
<text x="106.0" y="51" fill="#155C83" font-size="21" font-weight="600" text-anchor="middle" font-family="Microsoft YaHei, Noto Sans CJK SC, sans-serif">电域输入</text>
<rect x="420" y="22" width="194" height="42" rx="21" fill="#E8F4F2" stroke="#087F8C" stroke-width="1.3"/>
<text x="517.0" y="51" fill="#087F8C" font-size="21" font-weight="600" text-anchor="middle" font-family="Microsoft YaHei, Noto Sans CJK SC, sans-serif">光域线性计算</text>
<rect x="922" y="22" width="132" height="42" rx="21" fill="#FFF2E5" stroke="#B96920" stroke-width="1.3"/>
<text x="988.0" y="51" fill="#B96920" font-size="21" font-weight="600" text-anchor="middle" font-family="Microsoft YaHei, Noto Sans CJK SC, sans-serif">电域输出</text>
<rect x="20" y="112" width="180" height="188" rx="12" fill="#EAF3F8" stroke="#155C83" stroke-width="2.2"/>
<text x="110.0" y="164" fill="#155C83" font-size="25" font-weight="700" text-anchor="middle" font-family="Microsoft YaHei, Noto Sans CJK SC, sans-serif">电子输入</text>
<text x="110.0" y="262" fill="#526477" font-size="22" font-weight="400" text-anchor="middle" font-family="Microsoft YaHei, Noto Sans CJK SC, sans-serif">编码 / DAC</text>
<rect x="238" y="112" width="160" height="188" rx="12" fill="#EAF3F8" stroke="#155C83" stroke-width="2.2"/>
<text x="318.0" y="164" fill="#155C83" font-size="25" font-weight="700" text-anchor="middle" font-family="Microsoft YaHei, Noto Sans CJK SC, sans-serif">电光调制</text>
<text x="318.0" y="262" fill="#526477" font-size="22" font-weight="400" text-anchor="middle" font-family="Microsoft YaHei, Noto Sans CJK SC, sans-serif">数据加载</text>
<rect x="440" y="95" width="320" height="220" rx="12" fill="#E8F4F2" stroke="#087F8C" stroke-width="2.2"/>
<text x="600.0" y="147" fill="#087F8C" font-size="25" font-weight="700" text-anchor="middle" font-family="Microsoft YaHei, Noto Sans CJK SC, sans-serif">光学算子</text>
<text x="600.0" y="277" fill="#526477" font-size="22" font-weight="400" text-anchor="middle" font-family="Microsoft YaHei, Noto Sans CJK SC, sans-serif">MVM / 卷积 / 相关</text>
<rect x="800" y="112" width="165" height="188" rx="12" fill="#FFF2E5" stroke="#B96920" stroke-width="2.2"/>
<text x="882.5" y="164" fill="#B96920" font-size="25" font-weight="700" text-anchor="middle" font-family="Microsoft YaHei, Noto Sans CJK SC, sans-serif">光电探测</text>
<text x="882.5" y="262" fill="#526477" font-size="22" font-weight="400" text-anchor="middle" font-family="Microsoft YaHei, Noto Sans CJK SC, sans-serif">PD / ADC</text>
<rect x="1005" y="112" width="175" height="188" rx="12" fill="#FFF2E5" stroke="#B96920" stroke-width="2.2"/>
<text x="1092.5" y="164" fill="#B96920" font-size="25" font-weight="700" text-anchor="middle" font-family="Microsoft YaHei, Noto Sans CJK SC, sans-serif">电子处理</text>
<text x="1092.5" y="262" fill="#526477" font-size="22" font-weight="400" text-anchor="middle" font-family="Microsoft YaHei, Noto Sans CJK SC, sans-serif">非线性 / 输出</text>
<line x1="204" y1="207" x2="231" y2="207" stroke="#155C83" stroke-width="4" stroke-linecap="round"/>
<polygon points="231.0,207.0 221.0,213.7 221.0,200.3" fill="#155C83"/>
<line x1="402" y1="207" x2="433" y2="207" stroke="#087F8C" stroke-width="4" stroke-linecap="round"/>
<polygon points="433.0,207.0 423.0,213.7 423.0,200.3" fill="#087F8C"/>
<line x1="764" y1="207" x2="793" y2="207" stroke="#087F8C" stroke-width="4" stroke-linecap="round"/>
<polygon points="793.0,207.0 783.0,213.7 783.0,200.3" fill="#087F8C"/>
<line x1="969" y1="207" x2="998" y2="207" stroke="#B96920" stroke-width="4" stroke-linecap="round"/>
<polygon points="998.0,207.0 988.0,213.7 988.0,200.3" fill="#B96920"/>
<line x1="480" y1="195" x2="715" y2="195" stroke="#087F8C" stroke-width="4" stroke-linecap="round"/>
<line x1="480" y1="235" x2="715" y2="235" stroke="#087F8C" stroke-width="4" stroke-linecap="round"/>
<line x1="548" y1="195" x2="578" y2="235" stroke="#087F8C" stroke-width="3" stroke-linecap="round"/>
<line x1="548" y1="235" x2="578" y2="195" stroke="#087F8C" stroke-width="3" stroke-linecap="round"/>
<line x1="648" y1="195" x2="678" y2="235" stroke="#087F8C" stroke-width="3" stroke-linecap="round"/>
<line x1="648" y1="235" x2="678" y2="195" stroke="#087F8C" stroke-width="3" stroke-linecap="round"/>
<circle cx="612" cy="195" r="12" fill="#FFFFFF" stroke="#087F8C" stroke-width="3"/>
<text x="612" y="185" fill="#087F8C" font-size="22" font-weight="700" text-anchor="middle" font-family="Microsoft YaHei, Noto Sans CJK SC, sans-serif">φ</text>
<path d="M 1080 308 L 1080 415 L 592 415 L 592 339" fill="none" stroke="#B96920" stroke-width="3" stroke-linecap="round" stroke-linejoin="round" stroke-dasharray="9 7"/>
<text x="826" y="402" fill="#B96920" font-size="22" font-weight="600" text-anchor="middle" font-family="Microsoft YaHei, Noto Sans CJK SC, sans-serif">权重设置 / 校准 / 控制反馈</text>
<text x="600" y="482" fill="#1B2838" font-size="24" font-weight="600" text-anchor="middle" font-family="Microsoft YaHei, Noto Sans CJK SC, sans-serif">完整推理系统还包含激光、转换、存储、控制与数据移动</text>
</svg>
